<?xml version="1.0" encoding="UTF-8" standalone="no"?>
<!-- Generator: Adobe Illustrator 13.0.2, SVG Export Plug-In  -->

<svg
   version="1.1"
   x="0px"
   y="0px"
   viewBox="420 630 960 540"
   enable-background="new 420 630 960 540"
   xml:space="preserve"
   style="background-color:black;"
   id="svg862"
   sodipodi:docname="cores-subtrativas.svg"
   inkscape:export-filename="/Users/gustavo/Downloads/bitmap.png"
   inkscape:export-xdpi="761.84998"
   inkscape:export-ydpi="761.84998"
   inkscape:version="1.1.2 (b8e25be8, 2022-02-05)"
   xmlns:inkscape="http://www.inkscape.org/namespaces/inkscape"
   xmlns:sodipodi="http://sodipodi.sourceforge.net/DTD/sodipodi-0.dtd"
   xmlns="http://www.w3.org/2000/svg"
   xmlns:svg="http://www.w3.org/2000/svg"
   xmlns:rdf="http://www.w3.org/1999/02/22-rdf-syntax-ns#"
   xmlns:cc="http://creativecommons.org/ns#"
   xmlns:dc="http://purl.org/dc/elements/1.1/"><defs
   id="defs866" /><sodipodi:namedview
   id="namedview864"
   pagecolor="#ffffff"
   bordercolor="#666666"
   borderopacity="1.0"
   inkscape:pageshadow="2"
   inkscape:pageopacity="0.0"
   inkscape:pagecheckerboard="0"
   showgrid="false"
   inkscape:zoom="1.190625"
   inkscape:cx="611.86352"
   inkscape:cy="295.2231"
   inkscape:window-width="1650"
   inkscape:window-height="1027"
   inkscape:window-x="117"
   inkscape:window-y="25"
   inkscape:window-maximized="0"
   inkscape:current-layer="g26533" />
<title
   id="title824">Additive color mixing</title>











<text
   transform="rotate(1.2857984)"
   font-family="Helvetica"
   font-size="19.4396px"
   id="text848"
   x="839.42419"
   y="746.15137"
   style="stroke-width:0.809982" />





<metadata
   id="metadata948"><rdf:RDF><cc:Work
       rdf:about=""><dc:title>Additive color mixing</dc:title></cc:Work></rdf:RDF></metadata><g
   id="g26533"
   inkscape:export-filename="/Users/gustavo/Downloads/g26533.png"
   inkscape:export-xdpi="761.84998"
   inkscape:export-ydpi="761.84998"><g
     id="g16375"
     inkscape:export-filename="/Users/gustavo/Downloads/g16375.png"
     inkscape:export-xdpi="761.84998"
     inkscape:export-ydpi="761.84998"><rect
       style="fill:#ffffff;fill-opacity:1;stroke:#117029;stroke-width:0.4;stroke-linejoin:round;stroke-dashoffset:6.66667"
       id="rect26357"
       width="716.43042"
       height="532.49341"
       x="541.78485"
       y="633.35956" /><text
       xml:space="preserve"
       style="font-size:26.6667px;line-height:1.25;font-family:'Arial Unicode MS';-inkscape-font-specification:'Arial Unicode MS';fill:#000000;fill-opacity:1"
       x="729.8631"
       y="667.93793"
       id="text5739-6-8-5"><tspan
         sodipodi:role="line"
         id="tspan5737-9-3-8"
         x="729.8631"
         y="667.93793"
         style="font-size:26.6667px;fill:#000000;fill-opacity:1">modelo CMYK - cores subtrativas</tspan></text><text
       xml:space="preserve"
       style="font-size:26.6667px;line-height:1.25;font-family:'Arial Unicode MS';-inkscape-font-specification:'Arial Unicode MS';fill:#000000;fill-opacity:1"
       x="1111.7771"
       y="906.67926"
       id="text5739-6-8-7-2-4"><tspan
         sodipodi:role="line"
         id="tspan5737-9-3-5-2-1"
         x="1111.7771"
         y="906.67926"
         style="font-size:26.6667px;fill:#000000;fill-opacity:1">preto</tspan></text><path
       fill="#ff0000"
       d="m 1042.064,899.99991 c 0,-79.32492 -61.80699,-144.20268 -139.88859,-149.13234 1.7536,2.63736 3.4433,5.33871 5.0487,8.11944 25.9427,44.93394 25.8925,97.73703 4.5247,141.0129 21.367,43.27587 21.4172,96.07819 -4.5247,141.01209 -1.6054,2.7816 -3.2959,5.4829 -5.0487,8.1203 78.0816,-4.9289 139.88859,-69.80666 139.88859,-149.13239 z"
       id="path826"
       style="fill:#ffff00;fill-opacity:1;stroke-width:0.81" /><path
       fill="#00ff00"
       d="m 768.23626,817.14339 c 26.7948,-40.14279 72.49743,-66.58848 124.38279,-66.58848 3.21165,0 6.39576,0.1134 9.55636,0.31266 -43.30906,-65.1564 -130.39864,-86.24394 -199.09636,-46.58148 -68.69691,39.66246 -93.97944,125.62776 -59.20857,195.71382 1.40778,-2.83743 2.90223,-5.65137 4.50765,-8.43291 25.94268,-44.93394 71.69634,-71.29134 119.85813,-74.42361 z"
       id="path828"
       style="fill:#00ffff;fill-opacity:1;stroke-width:0.81" /><path
       fill="#ffff00"
       d="m 768.23626,817.14339 c 28.45125,-1.85085 57.74247,4.3983 84.28779,19.7235 26.54532,15.3252 46.60166,37.5678 59.22476,63.13302 21.3678,-43.27587 21.418,-96.07896 -4.5247,-141.0129 -1.6054,-2.78073 -3.2951,-5.48208 -5.0487,-8.11944 -3.1606,-0.20007 -6.34471,-0.31266 -9.55636,-0.31266 -51.88536,0 -97.58799,26.44569 -124.38279,66.58848 z"
       id="path830"
       style="fill:#00ff00;fill-opacity:1;stroke-width:0.81" /><path
       fill="#0000ff"
       d="m 768.23626,982.85643 c -48.16098,-3.13308 -93.91545,-29.49048 -119.85813,-74.42442 -1.60542,-2.78154 -3.09987,-5.59548 -4.50765,-8.43291 -34.77249,70.08525 -9.48996,156.0514 59.20776,195.7139 68.69691,39.6624 155.78649,18.5749 199.09637,-46.5807 -3.1606,0.1993 -6.34553,0.3127 -9.55637,0.3127 -51.88455,0 -97.58799,-26.4457 -124.38198,-66.58857 z"
       id="path832"
       style="fill:#ff00ff;fill-opacity:1;stroke-width:0.81" /><path
       fill="#ff00ff"
       d="m 911.74881,899.99991 c -12.6231,25.56522 -32.68106,47.80701 -59.22476,63.13221 -26.54451,15.32601 -55.83654,21.57516 -84.28779,19.72431 26.79399,40.14287 72.49743,66.58857 124.38279,66.58857 3.21084,0 6.39576,-0.1134 9.55636,-0.3127 1.7528,-2.6382 3.4433,-5.3395 5.0487,-8.1203 25.9427,-44.9339 25.8917,-97.73622 4.5247,-141.01209 z"
       id="path834"
       style="fill:#ff0000;fill-opacity:1;stroke-width:0.81" /><path
       fill="#00ffff"
       d="m 768.23626,982.85643 c -15.82902,-23.71437 -25.06221,-52.20531 -25.06221,-82.85652 0,-30.65121 9.234,-59.14296 25.06221,-82.85652 -48.16179,3.13308 -93.91545,29.48967 -119.85813,74.42361 -1.60542,2.78154 -3.09987,5.59548 -4.50765,8.43291 1.40778,2.83662 2.90223,5.65137 4.50765,8.43291 25.94268,44.93313 71.69634,71.29053 119.85813,74.42361 z"
       id="path836"
       style="fill:#0000ff;fill-opacity:1;stroke-width:0.81" /><path
       fill="#ffffff"
       d="m 852.52405,836.86689 c -26.54451,-15.3252 -55.83573,-21.57435 -84.28779,-19.7235 -15.82821,23.71356 -25.06221,52.20531 -25.06221,82.85652 0,30.65121 9.23319,59.14215 25.06221,82.85652 28.45125,1.85085 57.74328,-4.3983 84.28779,-19.72431 26.54451,-15.3252 46.60166,-37.5678 59.22476,-63.13221 -12.6231,-25.56522 -32.68025,-47.80782 -59.22476,-63.13302 z"
       id="path838"
       style="fill:#000000;fill-opacity:1;stroke-width:0.81" /><text
       xml:space="preserve"
       style="font-size:26.6667px;line-height:1.25;font-family:'Arial Unicode MS';-inkscape-font-specification:'Arial Unicode MS';fill:#000000;fill-opacity:1"
       x="715.07172"
       y="761.86353"
       id="text5739"><tspan
         sodipodi:role="line"
         id="tspan5737"
         x="715.07172"
         y="761.86353"
         style="font-size:26.6667px;fill:#000000;fill-opacity:1">ciano</tspan></text><text
       xml:space="preserve"
       style="font-size:26.6667px;line-height:1.25;font-family:'Arial Unicode MS';-inkscape-font-specification:'Arial Unicode MS';fill:#ffffff;fill-opacity:1"
       x="784.505"
       y="912.34741"
       id="text5739-6"><tspan
         sodipodi:role="line"
         id="tspan5737-9"
         x="784.505"
         y="912.34741"
         style="font-size:26.6667px;fill:#ffffff;fill-opacity:1">preto</tspan></text><text
       xml:space="preserve"
       style="font-size:26.6667px;line-height:1.25;font-family:'Arial Unicode MS';-inkscape-font-specification:'Arial Unicode MS';fill:#000000;fill-opacity:1"
       x="923.29645"
       y="906.46814"
       id="text5739-6-8"><tspan
         sodipodi:role="line"
         id="tspan5737-9-3"
         x="923.29645"
         y="906.46814"
         style="font-size:26.6667px;fill:#000000;fill-opacity:1">amarelo</tspan></text><text
       xml:space="preserve"
       style="font-size:26.6667px;line-height:1.25;font-family:'Arial Unicode MS';-inkscape-font-specification:'Arial Unicode MS';fill:#000000;fill-opacity:1"
       x="801.5777"
       y="1004.7358"
       id="text5739-6-8-7"><tspan
         sodipodi:role="line"
         id="tspan5737-9-3-5"
         x="801.5777"
         y="1004.7358"
         style="font-size:26.6667px;fill:#000000;fill-opacity:1">vermelho</tspan></text><text
       xml:space="preserve"
       style="font-size:26.6667px;line-height:1.25;font-family:'Arial Unicode MS';-inkscape-font-specification:'Arial Unicode MS';fill:#000000;fill-opacity:1"
       x="711.53302"
       y="1062.3632"
       id="text5739-6-8-7-2"><tspan
         sodipodi:role="line"
         id="tspan5737-9-3-5-2"
         x="711.53302"
         y="1062.3632"
         style="font-size:26.6667px;fill:#000000;fill-opacity:1">magenta</tspan></text><text
       xml:space="preserve"
       style="font-size:26.6667px;line-height:1.25;font-family:'Arial Unicode MS';-inkscape-font-specification:'Arial Unicode MS';fill:#ffffff;fill-opacity:1"
       x="678.67822"
       y="916.54688"
       id="text5739-8"><tspan
         sodipodi:role="line"
         id="tspan5737-0"
         x="678.67822"
         y="916.54688"
         style="font-size:26.6667px;fill:#ffffff;fill-opacity:1">azul</tspan></text><text
       xml:space="preserve"
       style="font-size:26.6667px;line-height:1.25;font-family:'Arial Unicode MS';-inkscape-font-specification:'Arial Unicode MS';fill:#000000;fill-opacity:1"
       x="827.33966"
       y="809.88025"
       id="text5739-2"><tspan
         sodipodi:role="line"
         id="tspan5737-3"
         x="827.33966"
         y="809.88025"
         style="font-size:26.6667px;fill:#000000;fill-opacity:1">verde</tspan></text></g></g></svg>
